<svg width="62" height="66" viewBox="0 0 62 66" fill="none" xmlns="http://www.w3.org/2000/svg">
<g id="message icon 1">
<g id="Clip path group">
<mask id="mask0_88_54" style="mask-type:luminance" maskUnits="userSpaceOnUse" x="7" y="10" width="48" height="45">
<g id="7d0c2987b5">
<path id="Vector" d="M7.10938 10.9993H54.8907V54.9553H7.10938V10.9993Z" fill="white"/>
</g>
</mask>
<g mask="url(#mask0_88_54)">
<g id="Group">
<path id="Vector_2" d="M44.1794 54.9986C44.0199 54.9986 43.8578 54.9896 43.6925 54.9711L43.2359 54.9195L32.5745 46.7479C31.1446 48.2941 29.3731 50.0802 27.7243 51.3789C27.3729 51.6566 26.9473 51.9701 26.4578 52.1956C25.4167 52.6769 24.5952 52.5181 24.0895 52.3008C23.1602 51.9 22.4898 50.9719 22.1966 49.6821L18.8589 37.9101L18.6038 37.6385L9.77203 34.7964C8.35507 34.509 7.25909 33.2578 7.14155 31.7666C7.04726 30.5772 7.58201 29.4043 8.53784 28.7051L8.70188 28.5841L50.9878 10.9993L51.3631 11.0213C52.2537 11.0742 53.4743 11.5596 54.2299 12.7648C54.9397 13.8991 54.939 15.1937 54.6891 16.0888C52.9563 26.0067 51.4141 34.5867 50.2296 40.911C48.3238 51.0764 47.9983 51.8911 47.8601 52.2383C47.2491 53.7714 46.1912 54.4225 45.9846 54.5386C45.4369 54.8446 44.8324 54.9986 44.1807 54.9986H44.1794ZM28.8745 39.3738L44.3784 51.2572C44.4533 51.1843 44.5753 51.0406 44.6696 50.8096C45.1004 49.5804 47.3176 38.1356 51.3056 15.3016L51.3308 15.16L51.3695 15.0438C51.376 15.0163 51.4012 14.8885 51.3501 14.808C51.3501 14.8066 51.3488 14.806 51.3482 14.8046L11.3233 31.4483L20.4347 34.3811L21.9189 35.961L25.4903 48.5533C25.5433 48.5141 25.6014 48.4694 25.6653 48.4185C27.0087 47.3598 28.4754 45.9057 29.7302 44.5685L26.3396 41.9691L26.1807 41.745C25.6705 41.021 25.3928 40.1307 25.3993 39.237C25.4102 37.697 26.2201 36.6822 26.5676 36.3178L26.5992 36.2855L37.0372 25.8685L39.4042 28.5566L28.9914 38.9489C28.9643 38.9798 28.8629 39.1091 28.8616 39.2631C28.8616 39.3023 28.8667 39.3387 28.8758 39.3738H28.8745ZM51.3753 15.0253C51.3753 15.0253 51.3727 15.0321 51.3708 15.0383L51.3753 15.0253Z" fill="white"/>
</g>
</g>
</g>
</g>
</svg>
